<?xml version="1.0" encoding="UTF-8"?>
<svg width="150" height="150" version="1.1" viewBox="0 0 86.201 86.201" xmlns="http://www.w3.org/2000/svg">
<path d="m43.1 0c-23.803 0-43.1 19.297-43.1 43.101s19.297 43.1 43.1 43.1c23.804 0 43.101-19.297 43.101-43.1s-19.297-43.101-43.101-43.101zm-31.607 43.101c0-6.9562 2.2868-13.373 6.1088-18.6l44.097 44.098c-5.2252 3.8235-11.642 6.1089-18.598 6.1089-17.428 0-31.607-14.179-31.607-31.607zm57.72 17.777-43.892-43.89c5.0708-3.4628 11.191-5.4943 17.779-5.4943 17.428 0 31.607 14.179 31.607 31.607 0 6.5886-2.0312 12.709-5.4941 17.777z" fill="#f00" stroke-width=".1875"/>
</svg>
